ffmpeg version 3.4.8-0ubuntu0.2 Copyright (c) 2000-2020 the FFmpeg developers
  built with gcc 7 (Ubuntu 7.5.0-3ubuntu1~18.04)
  configuration: --prefix=/usr --extra-version=0ubuntu0.2 --toolchain=hardened --libdir=/usr/lib/x86_64-linux-gnu --incdir=/usr/include/x86_64-linux-gnu --enable-gpl --disable-stripping --enable-avresample --enable-avisynth --enable-gnutls --enable-ladspa --enable-libass --enable-libbluray --enable-libbs2b --enable-libcaca --enable-libcdio --enable-libflite --enable-libfontconfig --enable-libfreetype --enable-libfribidi --enable-libgme --enable-libgsm --enable-libmp3lame --enable-libmysofa --enable-libopenjpeg --enable-libopenmpt --enable-libopus --enable-libpulse --enable-librubberband --enable-librsvg --enable-libshine --enable-libsnappy --enable-libsoxr --enable-libspeex --enable-libssh --enable-libtheora --enable-libtwolame --enable-libvorbis --enable-libvpx --enable-libwavpack --enable-libwebp --enable-libx265 --enable-libxml2 --enable-libxvid --enable-libzmq --enable-libzvbi --enable-omx --enable-openal --enable-opengl --enable-sdl2 --enable-libdc1394 --enable-libdrm --enable-libiec61883 --enable-chromaprint --enable-frei0r --enable-libopencv --enable-libx264 --enable-shared
  libavutil      55. 78.100 / 55. 78.100
  libavcodec     57.107.100 / 57.107.100
  libavformat    57. 83.100 / 57. 83.100
  libavdevice    57. 10.100 / 57. 10.100
  libavfilter     6.107.100 /  6.107.100
  libavresample   3.  7.  0 /  3.  7.  0
  libswscale      4.  8.100 /  4.  8.100
  libswresample   2.  9.100 /  2.  9.100
  libpostproc    54.  7.100 / 54.  7.100
[rawvideo @ 0x55acbdc31a20] Estimating duration from bitrate, this may be inaccurate
Input #0, rawvideo, from '../../SVC-Encoder-20220109T061506Z-001/SVC-Encoder/Dataset/RollerCoaster/ERP_8x8/tile_yuv/Tile_33_480x240.yuv':
  Duration: 00:00:10.00, start: 0.000000, bitrate: 41472 kb/s
    Stream #0:0: Video: rawvideo (I420 / 0x30323449), yuv420p, 480x240, 41472 kb/s, 30 tbr, 30 tbn, 30 tbc
Stream mapping:
  Stream #0:0 -> #0:0 (rawvideo (native) -> h264 (libx264))
Press [q] to stop, [?] for help
[libx264 @ 0x55acbdc3ec60] using cpu capabilities: MMX2 SSE2Fast LZCNT SSSE3 SSE4.2 AVX
[libx264 @ 0x55acbdc3ec60] profile High, level 2.1
Output #0, rawvideo, to 'RollerCoaster_Tile_33_480x240_x264_QP_20.h264':
  Metadata:
    encoder         : Lavf57.83.100
    Stream #0:0: Video: h264 (libx264), yuv420p, 480x240, q=-1--1, 30 fps, 30 tbn, 30 tbc
    Metadata:
      encoder         : Lavc57.107.100 libx264
    Side data:
      cpb: bitrate max/min/avg: 0/0/0 buffer size: 0 vbv_delay: -1
frame=  116 fps=0.0 q=26.0 PSNR=Y:nan U:nan V:nan *:nan size=     238kB time=00:00:02.43 bitrate= 800.0kbits/s speed=4.85x    frame=  211 fps=210 q=26.0 PSNR=Y:nan U:nan V:nan *:nan size=     512kB time=00:00:05.60 bitrate= 749.0kbits/s speed=5.58x    frame=  300 fps=182 q=26.0 LPSNR=Y:inf U:inf V:inf *:inf size=     901kB time=00:00:09.93 bitrate= 743.3kbits/s speed=6.03x    
video:901kB audio:0kB subtitle:0kB other streams:0kB global headers:0kB muxing overhead: 0.000000%
[libx264 @ 0x55acbdc3ec60] frame I:2     Avg QP:17.53  size: 30596  PSNR Mean Y:46.92 U:50.20 V:52.22 Avg:47.92 Global:47.90
[libx264 @ 0x55acbdc3ec60] frame P:76    Avg QP:19.49  size:  9042  PSNR Mean Y:43.38 U:49.46 V:50.86 Avg:44.70 Global:44.61
[libx264 @ 0x55acbdc3ec60] frame B:222   Avg QP:25.40  size:   786  PSNR Mean Y:41.90 U:49.12 V:50.64 Avg:43.32 Global:43.27
[libx264 @ 0x55acbdc3ec60] consecutive B-frames:  1.3%  0.0%  0.0% 98.7%
[libx264 @ 0x55acbdc3ec60] mb I  I16..4:  0.2% 73.2% 26.6%
[libx264 @ 0x55acbdc3ec60] mb P  I16..4:  0.0%  0.0%  0.0%  P16..4: 31.8% 34.1% 31.5%  0.0%  0.0%    skip: 2.5%
[libx264 @ 0x55acbdc3ec60] mb B  I16..4:  0.0%  0.0%  0.0%  B16..8: 57.7% 10.8%  1.2%  direct: 0.8%  skip:29.5%  L0:40.6% L1:39.9% BI:19.5%
[libx264 @ 0x55acbdc3ec60] 8x8 transform intra:73.0% inter:65.6%
[libx264 @ 0x55acbdc3ec60] coded y,uvDC,uvAC intra: 98.7% 98.5% 76.2% inter: 25.6% 15.2% 0.1%
[libx264 @ 0x55acbdc3ec60] i16 v,h,dc,p:  0% 50% 50%  0%
[libx264 @ 0x55acbdc3ec60] i8 v,h,dc,ddl,ddr,vr,hd,vl,hu:  6% 11% 12%  6% 14%  6% 19% 16%  9%
[libx264 @ 0x55acbdc3ec60] i4 v,h,dc,ddl,ddr,vr,hd,vl,hu:  7% 11%  9%  6% 15%  6% 24% 14%  8%
[libx264 @ 0x55acbdc3ec60] i8c dc,h,v,p: 39% 23% 16% 21%
[libx264 @ 0x55acbdc3ec60] Weighted P-Frames: Y:1.3% UV:0.0%
[libx264 @ 0x55acbdc3ec60] ref P L0: 62.6% 20.3% 14.6%  2.4%  0.0%
[libx264 @ 0x55acbdc3ec60] ref B L0: 92.0%  7.5%  0.5%
[libx264 @ 0x55acbdc3ec60] ref B L1: 94.0%  6.0%
[libx264 @ 0x55acbdc3ec60] PSNR Mean Y:42.310 U:49.215 V:50.707 Avg:43.703 Global:43.591 kb/s:738.30
